<?xml version="1.0" encoding="UTF-8" standalone="no"?>
<!DOCTYPE svg PUBLIC "-//W3C//DTD SVG 1.1//EN" "http://www.w3.org/Graphics/SVG/1.1/DTD/svg11.dtd">
<svg width="100%" height="100%" viewBox="0 0 3508 4961" version="1.1" xmlns="http://www.w3.org/2000/svg" xmlns:xlink="http://www.w3.org/1999/xlink" xml:space="preserve" xmlns:serif="http://www.serif.com/" style="fill-rule:evenodd;clip-rule:evenodd;stroke-linecap:round;stroke-linejoin:round;stroke-miterlimit:1.5;">
    <path d="M2255.24,4503.82L2178.78,4506.93" style="fill:none;stroke:white;stroke-width:37.29px;"/>
    <path d="M2176.81,4528.99L2178.78,3327.75L2246.85,3327.75" style="fill:none;stroke:white;stroke-width:37.29px;"/>
    <path d="M2212.89,1429.58L2179.3,1435.58L2039.47,639.533" style="fill:none;stroke:white;stroke-width:37.29px;"/>
    <path d="M1252.35,4528.99L2255.21,4528.97L2255.24,4503.82L2553.1,4467.12L2553.13,4047.86L2246.85,3327.75L2255.63,3327.91C2255.63,3327.91 2195.02,3055.97 2177.43,2894.76C2177.34,2893.92 2176.81,1435.58 2176.81,1435.58L2212.89,1429.58L2418.89,1393.2L2418.66,1180.88L1811.51,314.084C1784.8,265.777 1727.87,265.24 1698.56,311.643L1684.78,331.892L1089.6,1179.92L1089.63,1392.71L1295.16,1429.56L1330.72,1434.83L1330.58,1453.35L1330.85,2894.05L1252.05,3327.99L1260.96,3327.93L954.696,4048.13L954.802,4466.88L1277.8,4506.93L1252.29,4508.34L1252.35,4528.99Z" style="fill:none;stroke:white;stroke-width:37.29px;"/>
    <path d="M2177.43,2894.76L2178.78,3327.75" style="fill:none;stroke:white;stroke-width:37.29px;"/>
    <path d="M1330.85,2894.05L1329.58,3327.75" style="fill:none;stroke:white;stroke-width:37.29px;"/>
    <path d="M1260.96,3327.93L1329.58,3327.75L1329.58,4505.6L1277.8,4506.93" style="fill:none;stroke:white;stroke-width:37.29px;"/>
    <path d="M1295.16,1429.56L1330.69,1434.83L1468.86,639.533" style="fill:none;stroke:white;stroke-width:37.29px;"/>
    <path d="M1330.72,2376.54L2175.11,2377.51" style="fill:none;stroke:white;stroke-width:10.04px;"/>
    <path d="M1330.72,2533.32L2177.24,2532.87" style="fill:none;stroke:white;stroke-width:10.04px;"/>
    <path d="M1330.72,2688.93L2177.24,2688.68" style="fill:none;stroke:white;stroke-width:10.04px;"/>
    <path d="M1330.84,2835.09L2177.38,2835.05" style="fill:none;stroke:white;stroke-width:10.04px;"/>
    <path d="M1461.25,835.128L2046.71,835.221" style="fill:none;stroke:white;stroke-width:10.04px;"/>
    <path d="M1393.95,1131.18L2113.91,1131.32" style="fill:none;stroke:white;stroke-width:10.04px;"/>
    <path d="M1329.58,1443.9L2176.81,1444.25" style="fill:none;stroke:white;stroke-width:10.04px;"/>
    <path d="M1330.72,1599.35L2176.81,1599.35" style="fill:none;stroke:white;stroke-width:10.04px;"/>
    <path d="M2178.78,1754.7L1330.72,1755.16" style="fill:none;stroke:white;stroke-width:10.04px;"/>
    <path d="M1330.72,1910.51L2178.58,1911.32" style="fill:none;stroke:white;stroke-width:10.04px;"/>
    <path d="M2178.39,2065.87L1330.69,2066.09" style="fill:none;stroke:white;stroke-width:10.04px;"/>
    <path d="M1330.72,2221.44L2175.11,2222.15" style="fill:none;stroke:white;stroke-width:10.04px;"/>
    <path d="M2175.11,2990.45L1330.85,2990.45" style="fill:none;stroke:white;stroke-width:10.04px;"/>
    <path d="M1330.85,3145.81L2176.81,3145.55" style="fill:none;stroke:white;stroke-width:10.04px;"/>
    <path d="M1330.85,3293.12L2175.11,3292.97" style="fill:none;stroke:white;stroke-width:10.04px;"/>
    <path d="M1330.85,3448.48L2178.78,3449.11" style="fill:none;stroke:white;stroke-width:10.04px;"/>
    <path d="M1330.85,3603.5L2178.39,3603.66" style="fill:none;stroke:white;stroke-width:10.04px;"/>
    <path d="M1330.85,3759.19L2177.43,3759.02" style="fill:none;stroke:white;stroke-width:10.04px;"/>
    <path d="M1330.85,3906.81L2176.81,3906.33" style="fill:none;stroke:white;stroke-width:10.04px;"/>
    <path d="M1330.85,4061.87L2176.81,4062.5" style="fill:none;stroke:white;stroke-width:10.04px;"/>
    <path d="M1330.85,4217.52L2176.81,4217.86" style="fill:none;stroke:white;stroke-width:10.04px;"/>
    <path d="M1330.85,4371.95L2177.38,4372.63" style="fill:none;stroke:white;stroke-width:10.04px;"/>
</svg>
